<svg width="64" height="64" viewBox="0 0 64 64" fill="none" xmlns="http://www.w3.org/2000/svg">
<rect width="64" height="64" fill="#00D0D2"/>
<path d="M28.7326 27.8586C28.7326 27.8586 25.3388 30.3648 27.5221 32.763C30.3323 35.8741 33.3154 38.8124 34.6989 40.5624C35.9527 42.1395 36.1473 45.4235 34.0937 47.0655C32.213 48.5779 28.6894 48.3834 25.8576 45.7476C23.0474 43.1334 20.2588 40.0006 18.9185 38.2722C16.7136 35.4204 17.9242 26.6919 28.7326 27.8586Z" fill="black"/>
<path d="M34.3746 36.1558C34.3746 36.1558 37.7684 33.6496 35.5851 31.2514C32.7749 28.1403 29.7918 25.202 28.4083 23.452C27.1545 21.8748 26.9599 18.5909 29.0136 16.9489C30.8942 15.4365 34.4178 15.631 37.2496 18.2668C40.0814 20.9026 42.8268 24.0353 44.1887 25.7421C46.4801 28.6372 45.1614 37.3224 34.3746 36.1558Z" fill="black"/>
</svg>
